# This file uses feet as units for non-parametric coordinates.
# UVs by headus UVLayout v2.08.05 2014/11/17 09:42:08

mtllib Store_Counter_1.mtl
g default
v -90.246750 -1.722887 360.049791
v 1.193248 -1.722887 360.049791
v -80.107308 120.197111 360.049791
v -8.946198 120.197111 360.049791
v -80.107308 120.197111 -401.950209
v -8.946198 120.197111 -401.950209
v -90.246750 -1.722887 -401.950209
v 1.193248 -1.722887 -401.950209
v -35.713364 75.261725 -401.950179
v -90.570031 75.261725 -401.950179
v -90.570031 75.261725 360.049791
v -35.713364 75.261725 360.049791
v 1.193248 35.370573 -401.950209
v -90.246750 35.370573 -401.950209
v -90.246750 35.370573 360.049791
v 1.193248 35.370573 360.049791
v -35.713364 75.261725 -69.914092
v -8.946198 120.197111 -69.914107
v -80.107308 120.197111 -69.914107
v -90.570031 75.261725 -69.914092
v -90.246750 35.370573 -69.914107
v -90.246750 -1.722887 -69.914107
v 1.193248 -1.722887 -69.914107
v 1.193248 35.370573 -69.914107
v -35.713364 75.261725 -389.859053
v -8.946198 120.197111 -389.859084
v -80.107308 120.197111 -389.859084
v -90.570031 75.261725 -389.859053
v -90.246750 35.370573 -389.859084
v -90.246750 -1.722887 -389.859084
v 1.193248 -1.722887 -389.859084
v 1.193248 35.370573 -389.859084
v -35.713364 75.261717 325.085679
v -8.946202 120.197111 325.085679
v -80.107300 120.197111 325.085679
v -90.570031 75.261725 325.085679
v -90.246750 35.370573 325.085679
v -90.246750 -1.722887 325.085679
v 1.193248 -1.722887 325.085679
v 1.193244 35.370577 325.085679
v -2.683316 114.765074 325.085679
v -2.683312 114.765074 360.049791
v -77.278824 114.765074 360.049791
v -77.278824 114.765074 325.085679
v -77.278824 114.765074 -69.914100
v -77.278824 114.765074 -389.859084
v -77.278824 114.765074 -401.950209
v -2.683312 114.765074 -401.950209
v -2.683312 114.765074 -389.859084
v -2.683312 114.765074 -69.914100
v -8.946198 211.070456 -69.914107
v -80.107308 211.070456 -69.914107
v -8.946198 211.070456 -389.859084
v -80.107308 211.070456 -389.859084
v -8.946198 203.915976 -69.914107
v -80.107308 203.915976 -69.914107
v -80.107308 203.915976 -389.859084
v -8.946198 203.915976 -389.859084
v -8.946202 211.070425 -78.994170
v -80.107300 211.070425 -78.994170
v -80.107300 203.915976 -78.994170
v -80.107300 120.197111 -78.994170
v -77.278824 114.765074 -78.994162
v -90.570031 75.261725 -78.994162
v -90.246750 35.370573 -78.994178
v -90.246750 -1.722887 -78.994178
v 1.193248 -1.722887 -78.994178
v 1.193248 35.370573 -78.994170
v -35.713364 75.261725 -78.994155
v -2.683312 114.765074 -78.994170
v -8.946202 120.197111 -78.994170
v -8.946198 203.915976 -78.994178
v -8.946198 211.070456 -382.893508
v -80.107308 211.070456 -382.893508
v -80.107308 203.915976 -382.893508
v -80.107308 120.197111 -382.893508
v -77.278824 114.765074 -382.893508
v -90.570031 75.261725 -382.893477
v -90.246750 35.370573 -382.893508
v -90.246750 -1.722887 -382.893508
v 1.193248 -1.722887 -382.893508
v 1.193248 35.370573 -382.893508
v -35.713364 75.261725 -382.893477
v -2.683312 114.765074 -382.893508
v -8.946198 120.197111 -382.893508
v -8.946198 203.915976 -382.893508
v -8.946198 131.465513 -389.859084
v -8.946198 131.465513 -382.893508
v -8.946202 131.465513 -78.994170
v -8.946198 131.465513 -69.914107
v -80.107308 131.465513 -69.914107
v -80.107300 131.465513 -78.994170
v -80.107308 131.465513 -382.893508
v -80.107308 131.465513 -389.859084
v -9.709374 166.486853 -78.994170
v -8.946198 170.226774 -69.914107
v -80.107308 170.226774 -69.914107
v -80.202374 174.879477 -78.994170
v -9.639317 166.924795 -382.893508
v -80.132325 175.317419 -382.893508
v -80.107308 170.739225 -389.859084
v -8.946198 170.739225 -389.859084
v -9.036267 170.694685 -78.994178
v -8.946198 175.150480 -69.914107
v -80.107308 175.150480 -69.914107
v -79.529267 179.087309 -78.994170
v -8.851124 171.852057 -382.893508
v -79.344136 180.244688 -382.893508
v -80.107308 176.504759 -389.859084
v -8.946198 176.504759 -389.859084
v -9.168511 144.133528 -382.893508
v -79.413460 155.515585 -382.893508
v -80.107316 149.843535 -389.859084
v -8.946194 149.843535 -389.859084
v -9.629887 141.286116 -382.893508
v -79.874836 152.668173 -382.893508
v -80.107316 146.958983 -389.859084
v -8.946194 146.958983 -389.859084
v -9.145066 144.278280 -78.994170
v -8.946198 149.990172 -69.914107
v -80.107308 149.990172 -69.914107
v -79.390000 155.660330 -78.994170
v -9.663502 141.078711 -78.994170
v -8.946198 146.748869 -69.914107
v -80.107308 146.748869 -69.914107
v -79.908436 152.460760 -78.994170
# 223 texture coords
vt 0.477783 0.473951
vt 0.184730 0.474516
vt 0.229732 0.474432
vt 0.271581 0.474368
vt 0.374694 0.474142
vt 0.416508 0.474080
vt 0.477770 0.113221
vt 0.184792 0.113723
vt 0.229770 0.113641
vt 0.271588 0.113532
vt 0.374685 0.113431
vt 0.416502 0.113322
vt 0.479623 0.919329
vt 0.186588 0.919922
vt 0.231554 0.919836
vt 0.273361 0.919775
vt 0.376472 0.919525
vt 0.418326 0.919466
vt 0.537708 0.919182
vt 0.139614 0.920033
vt 0.137712 0.474618
vt 0.137794 0.113764
vt 0.535825 0.113155
vt 0.535834 0.473817
vt 0.024585 0.945357
vt 0.105011 0.945353
vt 0.137707 0.464323
vt 0.184708 0.464258
vt 0.229706 0.464178
vt 0.271549 0.464089
vt 0.374663 0.463939
vt 0.416489 0.463845
vt 0.477772 0.463737
vt 0.535841 0.463644
vt 0.024580 0.603605
vt 0.104982 0.603602
vt 0.137807 0.121620
vt 0.184809 0.121576
vt 0.229788 0.121496
vt 0.271603 0.121391
vt 0.374701 0.121284
vt 0.416517 0.121175
vt 0.477777 0.121076
vt 0.535825 0.121006
vt 0.700202 0.100622
vt 0.703001 0.020428
vt 0.694648 0.100424
vt 0.697454 0.020230
vt 0.723021 0.101426
vt 0.725807 0.021228
vt 0.729455 0.021354
vt 0.070902 0.011249
vt 0.516299 0.011249
vt 0.516299 0.091489
vt 0.070902 0.091489
vt 0.031477 0.091489
vt 0.031477 0.011249
vt 0.545172 0.473813
vt 0.547072 0.919170
vt 0.537783 0.958610
vt 0.479710 0.958752
vt 0.418406 0.958884
vt 0.545195 0.463631
vt 0.547130 0.958594
vt 0.376564 0.958958
vt 0.545166 0.120989
vt 0.273451 0.959193
vt 0.477753 0.099587
vt 0.535814 0.099524
vt 0.545170 0.113146
vt 0.231630 0.959265
vt 0.416476 0.099688
vt 0.545162 0.099515
vt 0.186666 0.959352
vt 0.374661 0.099797
vt 0.139678 0.959453
vt 0.271563 0.099897
vt 0.132722 0.920040
vt 0.130795 0.474620
vt 0.132772 0.959465
vt 0.229741 0.100006
vt 0.130806 0.464334
vt 0.184771 0.100090
vt 0.130895 0.121635
vt 0.137780 0.100129
vt 0.130888 0.113774
vt 0.130874 0.100138
vt 0.115498 0.286460
vt 0.073903 0.331463
vt 0.012047 0.331486
vt 0.012392 0.286509
vt 0.012370 0.244684
vt 0.115477 0.244632
vt 0.111161 0.375998
vt 0.027048 0.376023
vt 0.104101 0.382126
vt 0.023861 0.382148
vt 0.008872 0.445528
vt 0.008954 0.403698
vt 0.112060 0.403899
vt 0.111978 0.445721
vt 0.050408 0.490592
vt 0.112263 0.490694
vt 0.013096 0.535089
vt 0.097209 0.535205
vt 0.020150 0.541229
vt 0.100391 0.541329
vt 0.100375 0.554962
vt 0.020134 0.554864
vt 0.578976 0.021148
vt 0.577526 0.100223
vt 0.580734 0.100276
vt 0.605379 0.021612
vt 0.611784 0.021721
vt 0.610366 0.100787
vt 0.016693 0.946920
vt 0.016874 0.601625
vt 0.112689 0.601621
vt 0.112902 0.946915
vt 0.107016 0.959233
vt 0.022579 0.959237
vt 0.025788 0.954141
vt 0.103807 0.954137
vt 0.022655 0.591848
vt 0.025718 0.597307
vt 0.106907 0.591845
vt 0.103844 0.597304
vt 0.639680 0.188091
vt 0.613389 0.186905
vt 0.605072 0.108448
vt 0.640695 0.109033
vt 0.640825 0.101315
vt 0.599551 0.108343
vt 0.603961 0.100674
vt 0.642241 0.022268
vt 0.616091 0.014030
vt 0.642389 0.014546
vt 0.610588 0.013962
vt 0.582167 0.021208
vt 0.588588 0.013547
vt 0.599594 0.108354
vt 0.560314 0.099862
vt 0.561768 0.020824
vt 0.585468 0.013528
vt 0.588661 0.013591
vt 0.574266 0.107929
vt 0.571057 0.107885
vt 0.609303 0.186628
vt 0.587296 0.185936
vt 0.561911 0.013086
vt 0.560123 0.107533
vt 0.586186 0.185528
vt 0.562646 0.186540
vt 0.743905 0.102111
vt 0.743624 0.112278
vt 0.732762 0.112062
vt 0.726680 0.101561
vt 0.736524 0.192173
vt 0.712964 0.189854
vt 0.746678 0.021950
vt 0.747044 0.011723
vt 0.723394 0.010886
vt 0.732729 0.112029
vt 0.729090 0.111897
vt 0.719774 0.010746
vt 0.698124 0.010014
vt 0.711464 0.190186
vt 0.689776 0.189782
vt 0.704060 0.111026
vt 0.699289 0.110845
vt 0.662228 0.099271
vt 0.665036 0.019096
vt 0.693361 0.009835
vt 0.661857 0.109482
vt 0.665386 0.008872
vt 0.687115 0.189971
vt 0.659113 0.189666
vt 0.754808 0.898950
vt 0.754808 0.556277
vt 0.835049 0.556277
vt 0.835049 0.898950
vt 0.738473 0.899211
vt 0.658428 0.899051
vt 0.659055 0.556375
vt 0.739107 0.556536
vt 0.653628 0.899061
vt 0.653423 0.556388
vt 0.573577 0.899115
vt 0.573378 0.556441
vt 0.568766 0.899111
vt 0.567757 0.556437
vt 0.652575 0.201181
vt 0.732814 0.201093
vt 0.733186 0.543767
vt 0.652946 0.543854
vt 0.649324 0.201182
vt 0.649291 0.543856
vt 0.569085 0.201174
vt 0.569050 0.543848
vt 0.565832 0.201172
vt 0.565395 0.543845
vt 0.753005 0.543719
vt 0.753005 0.201047
vt 0.833245 0.201047
vt 0.833245 0.543719
vt 0.865735 0.435071
vt 0.875302 0.514930
vt 0.862669 0.516266
vt 0.853120 0.436581
vt 0.876091 0.523233
vt 0.863424 0.524185
vt 0.896088 0.866830
vt 0.883621 0.865516
vt 0.892760 0.879084
vt 0.881442 0.873740
vt 0.844960 0.946849
vt 0.836564 0.937703
vt 0.833624 0.953444
vt 0.829746 0.941640
vt 0.491394 0.990363
vt 0.490085 0.977726
vt 0.483455 0.991128
vt 0.482190 0.978485
vn 0.000000 0.000000 1.000000
vn 0.000000 0.000000 1.000000
vn 0.000000 0.000000 1.000000
vn 0.000000 0.000000 1.000000
vn 0.000000 1.000000 0.000000
vn 0.000000 1.000000 0.000000
vn 0.000000 1.000000 0.000000
vn 0.000000 1.000000 0.000000
vn 0.000000 -0.000001 -1.000000
vn 0.000000 -0.000001 -1.000000
vn 0.000000 0.000000 -1.000000
vn 0.000000 0.000000 -1.000000
vn 0.000000 -1.000000 0.000000
vn 0.000000 -1.000000 0.000000
vn 0.000000 -1.000000 0.000000
vn 0.000000 -1.000000 0.000000
vn 0.998810 0.048768 -0.000000
vn 0.998810 0.048769 -0.000000
vn 0.859126 -0.511765 0.000000
vn 0.859126 -0.511765 -0.000000
vn -0.986922 0.161199 0.000000
vn -0.986922 0.161199 0.000000
vn -0.973948 0.226773 -0.000000
vn -0.973948 0.226773 0.000000
vn 0.000000 0.000000 -1.000000
vn 0.000000 0.000000 -1.000000
vn -0.999991 -0.004199 0.000000
vn -0.999991 -0.004199 0.000000
vn 0.000000 0.000000 1.000000
vn 0.000000 0.000000 1.000000
vn 0.901733 0.432293 -0.000000
vn 0.901733 0.432293 -0.000000
vn 0.000000 0.000000 -1.000000
vn 0.000000 0.000000 -1.000000
vn -1.000000 0.000000 0.000000
vn -1.000000 0.000000 0.000000
vn 0.000000 0.000000 1.000000
vn 0.000000 0.000000 1.000000
vn 1.000000 0.000000 -0.000000
vn 1.000000 0.000000 -0.000000
vn 0.998810 0.048769 0.000000
vn 0.998810 0.048768 0.000000
vn 0.859126 -0.511765 -0.000000
vn 0.859126 -0.511765 0.000000
vn 0.000000 1.000000 -0.000001
vn 0.000000 1.000000 -0.000001
vn 0.000000 1.000000 -0.000000
vn 0.000000 1.000000 -0.000000
vn -0.986922 0.161199 0.000000
vn -0.986922 0.161199 0.000000
vn -0.973948 0.226773 0.000000
vn -0.973948 0.226773 -0.000000
vn -0.999991 -0.004199 0.000000
vn -0.999991 -0.004199 0.000000
vn -1.000000 0.000000 0.000000
vn -1.000000 0.000000 0.000000
vn 0.000000 -1.000000 0.000000
vn 0.000000 -1.000000 0.000000
vn 0.000000 -1.000000 0.000000
vn 0.000000 -1.000000 0.000000
vn 0.901733 0.432293 0.000000
vn 1.000000 0.000000 0.000000
vn 1.000000 -0.000000 0.000000
vn 0.901733 0.432293 0.000000
vn 0.998810 0.048768 0.000000
vn 0.998810 0.048768 0.000000
vn 0.859126 -0.511764 0.000000
vn 0.859126 -0.511765 0.000000
vn 0.000000 1.000000 0.000000
vn 0.000000 1.000000 0.000000
vn 0.000000 1.000000 0.000000
vn 0.000000 1.000000 0.000000
vn -0.986922 0.161199 0.000000
vn -0.986922 0.161199 0.000000
vn -0.973948 0.226773 0.000000
vn -0.973948 0.226773 0.000000
vn -0.999991 -0.004199 0.000000
vn -0.999991 -0.004199 0.000000
vn -1.000000 0.000000 0.000000
vn -1.000000 0.000000 0.000000
vn 0.000000 -1.000000 0.000000
vn 0.000000 -1.000000 0.000000
vn 0.000000 -1.000000 0.000000
vn 0.000000 -1.000000 0.000000
vn 0.901733 0.432293 0.000000
vn 1.000000 0.000000 0.000000
vn 1.000000 0.000000 0.000000
vn 0.901733 0.432293 0.000000
vn 0.000000 1.000000 -0.000000
vn 0.000000 1.000000 -0.000000
vn 0.655220 0.755438 0.000000
vn 0.655220 0.755438 -0.000000
vn 0.000000 0.000000 1.000000
vn 0.000000 0.000000 1.000000
vn -0.886961 -0.461844 -0.000000
vn -0.886961 -0.461844 0.000000
vn -0.895316 -0.445431 -0.000000
vn -0.985959 -0.166988 0.000000
vn -0.958836 -0.283959 0.000000
vn -0.886961 -0.461844 0.000000
vn 0.000000 0.000000 -1.000000
vn 0.000000 0.000000 -1.000000
vn 0.655220 0.755438 0.000000
vn 0.655220 0.755438 0.000000
vn 0.655220 0.755438 -0.000000
vn 0.655220 0.755438 -0.000000
vn 0.000000 0.000000 1.000000
vn 0.000000 0.000000 1.000000
vn 0.000000 0.000000 1.000000
vn 0.000000 0.000000 1.000000
vn 1.000000 0.000000 -0.000000
vn 1.000000 0.000000 -0.000000
vn 0.999999 0.000895 -0.001506
vn 0.999562 0.015116 -0.025443
vn 0.000000 0.000000 -1.000000
vn 0.000000 0.000000 -1.000000
vn 0.000000 0.000000 -1.000000
vn 0.000000 0.000000 -1.000000
vn -0.999978 0.003381 -0.005692
vn -1.000000 0.000245 -0.000412
vn 0.000000 0.000000 1.000000
vn 0.000000 0.000000 1.000000
vn 0.000000 0.000000 1.000000
vn 0.000000 0.000000 1.000000
vn -0.999994 -0.001057 -0.003349
vn -0.999600 -0.008509 -0.026958
vn -1.000000 0.000000 -0.000001
vn -1.000000 0.000000 -0.000000
vn 0.000000 0.000000 -1.000000
vn 0.000000 0.000000 -1.000000
vn 0.000000 0.000000 -1.000000
vn 0.000000 0.000000 -1.000000
vn 0.999992 -0.001180 -0.003740
vn 1.000000 -0.000162 -0.000514
vn 1.000000 0.000000 -0.000000
vn 1.000000 0.000000 -0.000000
vn 0.000000 1.000000 0.000000
vn 0.000000 1.000000 0.000000
vn -0.999990 -0.001107 0.004355
vn -1.000000 0.000000 0.000000
vn -0.985959 -0.166988 0.000000
vn -1.000000 0.000223 0.000496
vn -0.973948 0.226773 0.000000
vn -0.986922 0.161199 0.000000
vn -0.999991 -0.004199 0.000000
vn -1.000000 0.000000 0.000000
vn 0.000000 -1.000000 0.000000
vn 0.000000 -1.000000 0.000000
vn 1.000000 -0.000000 0.000000
vn 0.901733 0.432293 0.000000
vn 0.998810 0.048768 0.000000
vn 0.859126 -0.511765 0.000000
vn 0.655220 0.755438 0.000000
vn 1.000000 0.000000 0.000000
vn 0.999999 0.000663 0.001475
vn 1.000000 0.000136 -0.000536
vn 1.000000 0.000000 0.000000
vn 0.000000 1.000000 0.000000
vn 0.000000 1.000000 0.000000
vn -0.998879 -0.011658 0.045876
vn -1.000000 0.000000 0.000000
vn -0.999954 0.003924 0.008730
vn 1.000000 0.000000 0.000000
vn 0.999393 0.014279 0.031761
vn 0.999986 0.001288 -0.005071
vn 1.000000 0.000000 0.000000
vn 0.999208 -0.012147 0.037890
vn 0.990502 -0.137318 0.007084
vn 0.991130 -0.132724 -0.006728
vn 0.999460 -0.009641 -0.031415
vn 0.000000 0.000000 1.000000
vn 0.000000 0.000000 1.000000
vn -0.999900 0.011296 -0.008511
vn -0.989870 0.141972 -0.000909
vn -0.989115 0.147142 0.001004
vn -0.999855 0.010611 0.013319
vn 0.000000 0.000000 -1.000000
vn 0.000000 0.000000 -1.000000
vn 0.000000 1.000000 -0.000000
vn 0.000000 1.000000 -0.000000
vn 0.000000 1.000000 -0.000000
vn 0.000000 1.000000 -0.000000
vn 0.000000 0.000000 -1.000000
vn 0.000000 0.000000 -1.000000
vn 0.000000 0.000000 -1.000000
vn 0.000000 0.000000 -1.000000
vn 0.000000 -1.000000 0.000000
vn 0.000000 -1.000000 0.000000
vn 0.000000 -1.000000 0.000000
vn 0.000000 -1.000000 0.000000
vn 0.000000 0.000000 1.000000
vn 0.000000 0.000000 1.000000
vn 0.000000 0.000000 1.000000
vn 0.000000 0.000000 1.000000
vn 0.998816 -0.009583 -0.047691
vn 0.991200 -0.132079 -0.008855
vn 0.990622 -0.136624 -0.000995
vn 0.999962 -0.006868 -0.005286
vn 0.000000 0.000000 1.000000
vn 0.000000 0.000000 1.000000
vn 0.000000 0.000000 1.000000
vn 0.000000 0.000000 1.000000
vn -0.989983 0.141145 -0.003356
vn -0.999150 -0.010161 -0.039941
vn -0.999663 0.008213 -0.024618
vn -0.991868 0.127134 -0.005862
vn -0.998439 -0.007805 0.055313
vn -0.989399 0.145172 0.003819
vn -0.991129 0.132641 0.008401
vn -0.998955 0.010345 0.044530
vn 0.000000 0.000000 -1.000000
vn 0.000000 0.000000 -1.000000
vn 0.000000 0.000000 -1.000000
vn 0.000000 0.000000 -1.000000
vn 0.999974 -0.004092 -0.005957
vn 0.989820 -0.142326 -0.000575
vn 0.990647 -0.136157 0.008950
vn 0.998668 -0.016317 0.048959
vn -0.000000 -0.000000 -1.000000
vn -0.000000 -0.000000 -1.000000
vn -0.000000 -0.000000 -1.000000
vn -0.000000 -0.000000 -1.000000
vn 0.000000 0.000000 1.000000
vn 0.000000 0.000000 1.000000
vn 0.000000 0.000000 1.000000
vn 0.000000 0.000000 1.000000
vn -0.000000 0.000000 1.000000
vn -0.000000 0.000000 1.000000
vn -0.000000 0.000000 1.000000
vn -0.000000 0.000000 1.000000
vn -0.998949 0.008120 0.045122
vn -0.991716 0.127993 0.010836
vn 0.000000 0.000000 -1.000000
vn 0.000000 0.000000 -1.000000
vn 0.989571 -0.143921 0.005980
vn 0.997576 0.006299 0.069302
vn 0.998418 0.006998 -0.055793
vn 0.990459 -0.137643 -0.006794
vn 0.000000 0.000000 1.000000
vn 0.000000 0.000000 1.000000
vn -0.992448 0.122306 -0.009367
vn -0.999401 0.005197 -0.034220
vn 0.000000 0.000000 -1.000000
vn 0.000000 0.000000 -1.000000
vn 0.000000 0.000000 -1.000000
vn 0.000000 0.000000 -1.000000
vn -0.118221 -0.992986 -0.001458
vn -0.118221 -0.992986 -0.001458
vn -0.118221 -0.992986 -0.001458
vn -0.118221 -0.992986 -0.001458
vn 0.118220 0.992980 0.003854
vn 0.118220 0.992980 0.003854
vn 0.118220 0.992980 0.003854
vn 0.118220 0.992980 0.003854
vn -0.159948 -0.987125 -0.000691
vn -0.159948 -0.987125 -0.000691
vn -0.159948 -0.987125 -0.000691
vn -0.159948 -0.987125 -0.000691
vn 0.159948 0.987125 -0.000483
vn 0.159948 0.987125 -0.000483
vn 0.159948 0.987125 -0.000483
vn 0.159948 0.987125 -0.000483
s 1
g Counter
usemtl lambert2SG
f 11/90/1 12/89/2 42/94/3 43/95/4
s 2
f 3/56/5 4/57/6 34/52/7 35/55/8
s 3
f 47/105/9 48/104/10 9/102/11 10/103/12
s 4
f 38/16/13 39/17/14 2/65/15 1/67/16
s 5
f 12/61/17 33/13/18 41/19/19 42/60/20
s 6
f 36/14/21 11/74/22 43/76/23 44/20/24
s 3
f 10/103/12 9/102/11 13/98/25 14/101/26
s 6
f 37/15/27 15/71/28 11/74/22 36/14/21
s 1
f 15/91/29 16/88/30 12/89/2 11/90/1
s 5
f 16/62/31 40/18/32 33/13/18 12/61/17
s 3
f 14/101/26 13/98/25 8/99/33 7/100/34
s 6
f 38/16/35 1/67/36 15/71/28 37/15/27
s 1
f 1/92/37 2/93/38 16/88/30 15/91/29
s 5
f 2/65/39 39/17/40 40/18/32 16/62/31
f 17/1/41 69/33/42 70/34/43 50/24/44
s 8
f 52/123/45 51/122/46 59/25/47 60/26/48
s 6
f 64/28/49 20/2/50 45/21/51 63/27/52
f 65/29/53 21/3/54 20/2/50 64/28/49
f 66/30/55 22/4/56 21/3/54 65/29/53
s 4
f 66/30/57 67/31/58 23/5/59 22/4/60
s 5
f 24/6/61 23/5/62 67/31/63 68/32/64
f 17/1/41 24/6/61 68/32/64 69/33/42
f 25/7/65 9/68/66 48/69/67 49/23/68
s off
f 27/108/69 26/109/70 6/106/71 5/107/72
s 6
f 10/83/73 28/8/74 46/22/75 47/85/76
f 14/81/77 29/9/78 28/8/74 10/83/73
f 7/77/79 30/10/80 29/9/78 14/81/77
s 4
f 7/77/81 8/75/82 31/11/83 30/10/84
s 5
f 32/12/85 31/11/86 8/75/87 13/72/88
f 25/7/65 32/12/85 13/72/88 9/68/66
f 33/13/18 17/1/41 50/24/44 41/19/19
s 2
f 35/55/8 34/52/7 18/53/89 19/54/90
s 6
f 20/2/50 36/14/21 44/20/24 45/21/51
f 21/3/54 37/15/27 36/14/21 20/2/50
f 22/4/56 38/16/35 37/15/27 21/3/54
s 4
f 22/4/60 23/5/59 39/17/14 38/16/13
s 5
f 40/18/32 39/17/40 23/5/62 24/6/61
f 33/13/18 40/18/32 24/6/61 17/1/41
f 42/60/20 41/19/19 34/59/91 4/64/92
s 1
f 43/95/4 42/94/3 4/96/93 3/97/94
s 6
f 44/20/24 43/76/23 3/80/95 35/78/96
f 45/21/51 44/20/24 35/78/96 19/79/97
f 63/27/52 45/21/51 19/79/97 62/82/98
f 47/85/76 46/22/75 27/86/99 5/87/100
s 3
f 5/107/101 6/106/102 48/104/10 47/105/9
s 5
f 49/23/68 48/69/67 6/73/103 26/70/104
f 50/24/44 70/34/43 71/63/105 18/58/106
f 41/19/19 50/24/44 18/58/106 34/59/91
s 15
f 19/214/107 18/216/108 90/217/109 91/215/110
s 16
f 18/216/111 71/218/112 89/219/113 90/217/114
s 17
f 26/206/115 27/207/116 94/208/117 87/209/118
s 6
f 62/212/98 19/214/97 91/215/119 92/213/120
s 15
f 56/120/121 55/121/122 51/122/123 52/123/124
s 6
f 61/119/125 56/120/126 52/123/127 60/26/128
s 17
f 58/124/129 57/126/130 54/127/131 53/125/132
s 16
f 55/121/133 72/116/134 59/25/135 51/122/136
s 8
f 60/26/48 59/25/47 73/35/137 74/36/138
s 6
f 75/118/139 61/119/125 60/26/128 74/36/140
f 76/210/141 62/212/98 92/213/120 93/211/142
f 77/37/143 63/27/52 62/82/98 76/84/141
f 78/38/144 64/28/49 63/27/52 77/37/143
f 79/39/145 65/29/53 64/28/49 78/38/144
f 80/40/146 66/30/55 65/29/53 79/39/145
s 4
f 80/40/147 81/41/148 67/31/58 66/30/57
s 5
f 68/32/64 67/31/63 81/41/149 82/42/150
f 69/33/42 68/32/64 82/42/150 83/43/151
f 70/34/43 69/33/42 83/43/151 84/44/152
f 71/63/105 70/34/43 84/44/152 85/66/153
s 16
f 89/219/113 71/218/112 85/220/154 88/221/155
f 59/25/135 72/116/134 86/117/156 73/35/157
s 8
f 74/36/138 73/35/137 53/125/158 54/127/159
s 6
f 57/126/160 75/118/139 74/36/140 54/127/161
f 27/207/99 76/210/141 93/211/142 94/208/162
f 46/22/75 77/37/143 76/84/141 27/86/99
f 28/8/74 78/38/144 77/37/143 46/22/75
f 29/9/78 79/39/145 78/38/144 28/8/74
f 30/10/80 80/40/146 79/39/145 29/9/78
s 4
f 30/10/84 31/11/83 81/41/148 80/40/147
s 5
f 82/42/150 81/41/149 31/11/86 32/12/85
f 83/43/151 82/42/150 32/12/85 25/7/65
f 84/44/152 83/43/151 25/7/65 49/23/68
f 85/66/153 84/44/152 49/23/68 26/70/104
s 16
f 88/221/155 85/220/154 26/222/163 87/223/164
f 73/35/157 86/117/156 58/124/165 53/125/166
f 118/111/167 115/147/168 88/151/155 87/142/164
f 90/154/114 89/155/113 123/156/169 124/157/170
s 15
f 91/160/110 90/154/109 124/157/171 125/51/172
s 6
f 92/161/120 91/160/119 125/51/173 126/162/174
f 94/143/162 93/150/142 116/144/175 117/110/176
s 17
f 87/142/118 94/143/117 117/110/177 118/111/178
s off
f 89/202/179 88/203/180 93/204/181 92/205/182
f 92/158/183 126/159/184 123/156/185 89/155/186
f 61/178/187 75/179/188 86/180/189 72/181/190
f 116/152/191 93/153/192 88/151/193 115/147/194
s 16
f 96/45/195 95/169/196 103/170/197 104/47/198
s 15
f 97/46/199 96/45/200 104/47/201 105/48/202
s 6
f 98/166/203 97/46/204 105/48/205 106/173/206
f 101/113/207 100/138/208 108/136/209 109/114/210
s 17
f 102/134/211 101/113/212 109/114/213 110/115/214
s 16
f 110/115/215 107/130/216 99/133/217 102/134/218
f 104/47/198 103/170/197 72/174/134 55/171/133
s 15
f 105/48/202 104/47/201 55/171/122 56/172/121
s 6
f 106/173/206 105/48/205 56/172/126 61/175/125
s off
f 103/170/219 106/176/220 61/177/221 72/174/222
f 75/128/223 108/129/224 107/130/225 86/131/226
s 6
f 109/114/210 108/136/209 75/137/139 57/135/160
s 17
f 110/115/214 109/114/213 57/135/130 58/132/129
s 16
f 86/131/156 107/130/216 110/115/215 58/132/165
s off
f 100/148/227 112/149/228 111/146/229 99/141/230
s 6
f 113/139/231 112/140/232 100/138/208 101/113/207
s 17
f 114/112/233 113/139/234 101/113/212 102/134/211
s 16
f 102/134/218 99/141/217 111/146/235 114/112/236
s 6
f 117/110/176 116/144/175 112/145/232 113/139/231
s 17
f 118/111/178 117/110/177 113/139/234 114/112/233
s 16
f 114/112/236 111/146/235 115/147/168 118/111/167
f 120/49/237 119/164/238 95/169/196 96/45/195
s 15
f 121/50/239 120/49/240 96/45/200 97/46/199
s 6
f 122/165/241 121/50/242 97/46/204 98/166/203
s off
f 119/164/243 122/167/244 98/168/245 95/169/246
s 16
f 124/157/170 123/163/169 119/164/238 120/49/237
s 15
f 125/51/172 124/157/171 120/49/240 121/50/239
s 6
f 126/162/174 125/51/173 121/50/242 122/165/241
s 16
f 103/183/197 95/186/196 99/187/217 107/184/216
s off
f 95/186/247 98/188/248 100/189/249 99/187/250
s 6
f 98/188/203 106/190/206 108/191/209 100/189/208
s off
f 106/182/251 103/183/252 107/184/253 108/185/254
f 116/198/255 115/196/256 123/197/257 126/199/258
s 16
f 115/196/168 111/192/235 119/195/238 123/197/169
s off
f 111/192/259 112/193/260 122/194/261 119/195/262
s 6
f 112/200/232 116/198/175 126/199/174 122/201/241
