# This file uses feet as units for non-parametric coordinates.

mtllib spear.mtl
g default
v -225.079855 -1.787224 -7.027027
v -224.733227 4.679012 -4.906058
v -223.611614 4.679011 1.957544
v -223.264961 -1.787223 4.078514
v -224.172345 -5.783576 -1.474257
v -219.077706 -3.574448 -12.579798
v -218.384426 9.358024 -8.337860
v -216.141123 9.358023 5.389345
v -215.447843 -3.574446 9.631285
v -217.262711 -11.567151 -1.474257
v -214.937173 -5.361672 -18.132566
v -213.897340 14.037033 -11.769660
v -210.532222 14.037035 8.821144
v -209.492491 -5.361669 15.184051
v -212.214693 -17.350727 -1.474257
v -209.138908 -7.148896 -23.685337
v -207.752423 18.716047 -15.201461
v -203.265717 18.716045 12.252947
v -201.879232 -7.148892 20.736824
v -205.509019 -23.134303 -1.474257
v -205.038113 -8.936121 -29.238110
v -203.304950 23.395056 -18.633265
v -197.696656 23.395058 15.684746
v -195.963493 -8.936117 26.289596
v -200.500715 -28.917879 -1.474257
v -123.930272 -7.148896 -23.095635
v -122.543837 18.716047 -14.611759
v -118.057131 18.716045 12.842649
v -116.670646 -7.148892 21.326528
v -120.300535 -23.134303 -0.884554
v -42.822541 -5.361672 -16.953160
v -41.782687 14.037033 -10.590256
v -38.417629 14.037035 10.000550
v -37.377784 -5.361669 16.363458
v -40.100185 -17.350727 -0.294851
v 38.285215 -3.574447 -10.810688
v 38.978477 9.358022 -6.568750
v 41.221826 9.358021 7.158451
v 41.915072 -3.574446 11.400391
v 40.100185 -11.567150 0.294851
v 119.393000 -1.787224 -4.668215
v 119.739602 4.679010 -2.547246
v 120.861241 4.679011 4.316353
v 121.207919 -1.787223 6.437322
v 120.300510 -5.783574 0.884554
v -233.457578 -0.000000 -1.474257
v 200.500715 0.000000 1.474257
vt 0.515451 0.202447
vt 0.459549 0.220611
vt 0.459549 0.279389
vt 0.515451 0.297553
vt 0.550000 0.250000
vt 0.530902 0.154894
vt 0.419098 0.191221
vt 0.419098 0.308779
vt 0.530902 0.345106
vt 0.600000 0.250000
vt 0.546353 0.107341
vt 0.378647 0.161832
vt 0.378647 0.338168
vt 0.546353 0.392658
vt 0.650000 0.250000
vt 0.561803 0.059789
vt 0.338197 0.132443
vt 0.338197 0.367557
vt 0.561803 0.440211
vt 0.700000 0.250000
vt 0.577254 0.012236
vt 0.297746 0.103054
vt 0.297746 0.396946
vt 0.577254 0.487764
vt 0.750000 0.250000
vt 0.250000 0.500000
vt 0.350000 0.500000
vt 0.450000 0.500000
vt 0.550000 0.500000
vt 0.650000 0.500000
vt 0.750000 0.500000
vt 0.300000 0.600000
vt 0.380000 0.600000
vt 0.460000 0.600000
vt 0.540000 0.600000
vt 0.620000 0.600000
vt 0.700000 0.600000
vt 0.350000 0.700000
vt 0.410000 0.700000
vt 0.470000 0.700000
vt 0.530000 0.700000
vt 0.590000 0.700000
vt 0.650000 0.700000
vt 0.400000 0.800000
vt 0.440000 0.800000
vt 0.480000 0.800000
vt 0.520000 0.800000
vt 0.560000 0.800000
vt 0.600000 0.800000
vt 0.450000 0.900000
vt 0.470000 0.900000
vt 0.490000 0.900000
vt 0.510000 0.900000
vt 0.530000 0.900000
vt 0.550000 0.900000
vt 0.500000 0.250000
vt 0.500000 1.000000
vn -0.670879 -0.259859 -0.694547
vn -0.647927 0.659551 -0.381029
vn -0.754587 0.584626 -0.298011
vn -0.782076 -0.231634 -0.578536
vn -0.592144 0.611880 0.524374
vn -0.687999 0.531922 0.493677
vn -0.579129 -0.229725 0.782200
vn -0.672430 -0.198437 0.713064
vn -0.617052 -0.781956 0.088265
vn -0.717717 -0.686579 0.116157
vn -0.712964 0.614606 -0.337551
vn -0.738996 -0.241955 -0.628763
vn -0.647563 0.570483 0.505185
vn -0.631638 -0.214161 0.745097
vn -0.677222 -0.729062 0.099190
vn -0.754053 0.586395 -0.295879
vn -0.781741 -0.232732 -0.578548
vn -0.687532 0.530264 0.496105
vn -0.672128 -0.197420 0.713631
vn -0.717106 -0.686612 0.119676
vn -0.785832 0.568684 -0.243037
vn -0.816785 -0.229401 -0.529374
vn -0.715984 0.481272 0.505712
vn -0.701404 -0.174678 0.691029
vn -0.745981 -0.645982 0.161921
vn 0.065102 0.307855 -0.949203
vn 0.065102 0.307855 -0.949203
vn 0.065102 0.307855 -0.949203
vn 0.065102 0.307855 -0.949203
vn 0.058310 0.998253 -0.009529
vn 0.058310 0.998253 -0.009529
vn 0.058310 0.998253 -0.009529
vn 0.058310 0.998253 -0.009529
vn 0.052268 0.313772 0.948059
vn 0.052268 0.313772 0.948059
vn 0.052268 0.313772 0.948059
vn 0.052268 0.313772 0.948059
vn 0.054502 -0.814644 0.577395
vn 0.054502 -0.814644 0.577395
vn 0.054502 -0.814644 0.577395
vn 0.054502 -0.814644 0.577395
vn 0.062403 -0.805203 -0.589706
vn 0.062403 -0.805203 -0.589706
vn 0.062403 -0.805203 -0.589706
vn 0.062403 -0.805203 -0.589706
vn 0.065102 0.307855 -0.949203
vn 0.065102 0.307855 -0.949203
vn 0.058310 0.998253 -0.009529
vn 0.058310 0.998253 -0.009529
vn 0.052268 0.313772 0.948059
vn 0.052268 0.313772 0.948059
vn 0.054502 -0.814644 0.577395
vn 0.054502 -0.814644 0.577395
vn 0.062403 -0.805203 -0.589706
vn 0.062403 -0.805203 -0.589706
vn 0.065102 0.307855 -0.949203
vn 0.065102 0.307855 -0.949203
vn 0.058310 0.998253 -0.009529
vn 0.058310 0.998253 -0.009529
vn 0.052268 0.313772 0.948059
vn 0.052268 0.313772 0.948059
vn 0.054502 -0.814644 0.577396
vn 0.054502 -0.814643 0.577396
vn 0.062403 -0.805203 -0.589706
vn 0.062403 -0.805203 -0.589707
vn 0.065102 0.307855 -0.949203
vn 0.065102 0.307855 -0.949203
vn 0.058310 0.998253 -0.009529
vn 0.058310 0.998253 -0.009529
vn 0.052268 0.313772 0.948059
vn 0.052268 0.313772 0.948059
vn 0.054502 -0.814643 0.577396
vn 0.054502 -0.814643 0.577396
vn 0.062403 -0.805203 -0.589707
vn 0.062403 -0.805203 -0.589707
vn -0.994779 -0.000031 0.102054
vn 0.065102 0.307856 -0.949203
vn 0.058310 0.998253 -0.009529
vn 0.052268 0.313772 0.948059
vn 0.054502 -0.814643 0.577396
vn 0.062403 -0.805203 -0.589707
s 1
g pPyramid1
usemtl initialShadingGroup
f 1/1/1 2/2/2 7/7/3 6/6/4
f 2/2/2 3/3/5 8/8/6 7/7/3
f 3/3/5 4/4/7 9/9/8 8/8/6
f 4/4/7 5/5/9 10/10/10 9/9/8
f 5/5/9 1/1/1 6/6/4 10/10/10
f 6/6/4 7/7/3 12/12/11 11/11/12
f 7/7/3 8/8/6 13/13/13 12/12/11
f 8/8/6 9/9/8 14/14/14 13/13/13
f 9/9/8 10/10/10 15/15/15 14/14/14
f 10/10/10 6/6/4 11/11/12 15/15/15
f 11/11/12 12/12/11 17/17/16 16/16/17
f 12/12/11 13/13/13 18/18/18 17/17/16
f 13/13/13 14/14/14 19/19/19 18/18/18
f 14/14/14 15/15/15 20/20/20 19/19/19
f 15/15/15 11/11/12 16/16/17 20/20/20
f 16/16/17 17/17/16 22/22/21 21/21/22
f 17/17/16 18/18/18 23/23/23 22/22/21
f 18/18/18 19/19/19 24/24/24 23/23/23
f 19/19/19 20/20/20 25/25/25 24/24/24
f 20/20/20 16/16/17 21/21/22 25/25/25
s 2
f 21/26/26 22/27/27 27/33/28 26/32/29
s 3
f 22/27/30 23/28/31 28/34/32 27/33/33
s 4
f 23/28/34 24/29/35 29/35/36 28/34/37
s 5
f 24/29/38 25/30/39 30/36/40 29/35/41
s 6
f 25/30/42 21/31/43 26/37/44 30/36/45
s 2
f 26/32/29 27/33/28 32/39/46 31/38/47
s 3
f 27/33/33 28/34/32 33/40/48 32/39/49
s 4
f 28/34/37 29/35/36 34/41/50 33/40/51
s 5
f 29/35/41 30/36/40 35/42/52 34/41/53
s 6
f 30/36/45 26/37/44 31/43/54 35/42/55
s 2
f 31/38/47 32/39/46 37/45/56 36/44/57
s 3
f 32/39/49 33/40/48 38/46/58 37/45/59
s 4
f 33/40/51 34/41/50 39/47/60 38/46/61
s 5
f 34/41/53 35/42/52 40/48/62 39/47/63
s 6
f 35/42/55 31/43/54 36/49/64 40/48/65
s 2
f 36/44/57 37/45/56 42/51/66 41/50/67
s 3
f 37/45/59 38/46/58 43/52/68 42/51/69
s 4
f 38/46/61 39/47/60 44/53/70 43/52/71
s 5
f 39/47/63 40/48/62 45/54/72 44/53/73
s 6
f 40/48/65 36/49/64 41/55/74 45/54/75
s 1
f 2/2/2 1/1/1 46/56/76
f 3/3/5 2/2/2 46/56/76
f 4/4/7 3/3/5 46/56/76
f 5/5/9 4/4/7 46/56/76
f 1/1/1 5/5/9 46/56/76
s 2
f 41/50/67 42/51/66 47/57/77
s 3
f 42/51/69 43/52/68 47/57/78
s 4
f 43/52/71 44/53/70 47/57/79
s 5
f 44/53/73 45/54/72 47/57/80
s 6
f 45/54/75 41/55/74 47/57/81
