# This file uses centimeters as units for non-parametric coordinates.

mtllib Clipboard.mtl
g default
v -0.429003 -0.015025 0.166175
v -0.350580 -0.015025 0.166175
v -0.328355 -0.015025 0.166175
v -0.306130 -0.015025 0.166175
v -0.283905 -0.015025 0.166175
v 0.694275 -0.015025 0.166175
v -0.429003 0.000000 0.166175
v -0.350580 0.000000 0.166175
v -0.328355 0.000000 0.166175
v -0.306130 0.000000 0.166175
v -0.283905 0.000000 0.166175
v 0.694275 0.000000 0.166175
v -0.429003 0.000000 0.032406
v -0.350580 0.000000 0.032406
v -0.328355 0.000000 0.032406
v -0.306130 0.000000 0.032406
v -0.283905 0.000000 0.032406
v 0.694275 0.000000 0.032406
v -0.429003 0.000000 -0.101363
v -0.350580 0.000000 -0.101363
v -0.283905 0.000000 -0.101363
v 0.694275 0.000000 -0.101363
v -0.429003 0.000000 -0.235132
v -0.350580 0.000000 -0.235132
v -0.283905 0.000000 -0.235132
v 0.694275 0.000000 -0.235132
v -0.429003 0.000000 -0.368901
v -0.350580 0.000000 -0.368901
v -0.328355 0.000000 -0.368901
v -0.306130 0.000000 -0.368901
v -0.283905 0.000000 -0.368901
v 0.694275 0.000000 -0.368901
v -0.429003 0.000000 -0.502670
v -0.350580 0.000000 -0.502670
v -0.328355 0.000000 -0.502670
v -0.306130 0.000000 -0.502670
v -0.283905 0.000000 -0.502670
v 0.694275 0.000000 -0.502670
v -0.429003 -0.015025 -0.502670
v -0.350580 -0.015025 -0.502670
v -0.328355 -0.015025 -0.502670
v -0.306130 -0.015025 -0.502670
v -0.283905 -0.015025 -0.502670
v 0.694275 -0.015025 -0.502670
v -0.429003 -0.015025 -0.368901
v -0.350580 -0.015025 -0.368901
v -0.328355 -0.015025 -0.368901
v -0.306130 -0.015025 -0.368901
v -0.283905 -0.015025 -0.368901
v 0.694275 -0.015025 -0.368901
v -0.429003 -0.015025 -0.235132
v -0.350580 -0.015025 -0.235132
v -0.328355 -0.015025 -0.235132
v -0.306130 -0.015025 -0.235132
v -0.283905 -0.015025 -0.235132
v 0.694275 -0.015025 -0.235132
v -0.429003 -0.015025 -0.101363
v -0.350580 -0.015025 -0.101363
v -0.328355 -0.015025 -0.101363
v -0.306130 -0.015025 -0.101363
v -0.283905 -0.015025 -0.101363
v 0.694275 -0.015025 -0.101363
v -0.429003 -0.015025 0.032406
v -0.350580 -0.015025 0.032406
v -0.328355 -0.015025 0.032406
v -0.306130 -0.015025 0.032406
v -0.283905 -0.015025 0.032406
v 0.694275 -0.015025 0.032406
v -0.353842 0.006975 -0.054497
v -0.339311 0.006975 -0.054497
v -0.353842 0.006975 -0.130331
v -0.324781 0.006975 -0.054497
v -0.310250 0.006975 -0.054497
v -0.310250 0.006975 -0.130331
v -0.353842 0.006975 -0.206164
v -0.310250 0.006975 -0.206164
v -0.339311 0.006975 -0.281997
v -0.353842 0.006975 -0.281997
v -0.324781 0.006975 -0.281997
v -0.310250 0.006975 -0.281997
v -0.353347 0.013206 0.017284
v -0.317929 0.013206 0.081363
v -0.317929 0.013206 -0.117235
v -0.353347 0.013206 -0.130331
v -0.291838 0.013206 0.058710
v -0.291838 0.013206 -0.121864
v -0.268895 0.013206 0.058710
v -0.268895 0.013206 -0.121864
v -0.317929 0.013206 -0.219260
v -0.353347 0.013206 -0.206164
v -0.291838 0.013206 -0.214630
v -0.268895 0.013206 -0.214630
v -0.317929 0.013206 -0.417858
v -0.353347 0.013206 -0.353778
v -0.291838 0.013206 -0.395204
v -0.268895 0.013206 -0.395204
vt 0.375000 0.000000
vt 0.425000 0.000000
vt 0.475000 0.000000
vt 0.525000 0.000000
vt 0.575000 0.000000
vt 0.625000 0.000000
vt 0.375000 0.250000
vt 0.425000 0.250000
vt 0.475000 0.250000
vt 0.525000 0.250000
vt 0.575000 0.250000
vt 0.625000 0.250000
vt 0.375000 0.300000
vt 0.425000 0.300000
vt 0.475000 0.300000
vt 0.525000 0.300000
vt 0.575000 0.300000
vt 0.625000 0.300000
vt 0.375000 0.350000
vt 0.425000 0.350000
vt 0.475000 0.350000
vt 0.525000 0.350000
vt 0.575000 0.350000
vt 0.625000 0.350000
vt 0.375000 0.400000
vt 0.425000 0.400000
vt 0.475000 0.400000
vt 0.525000 0.400000
vt 0.575000 0.400000
vt 0.625000 0.400000
vt 0.375000 0.450000
vt 0.425000 0.450000
vt 0.475000 0.450000
vt 0.525000 0.450000
vt 0.575000 0.450000
vt 0.625000 0.450000
vt 0.375000 0.500000
vt 0.425000 0.500000
vt 0.475000 0.500000
vt 0.525000 0.500000
vt 0.575000 0.500000
vt 0.625000 0.500000
vt 0.375000 0.750000
vt 0.425000 0.750000
vt 0.475000 0.750000
vt 0.525000 0.750000
vt 0.575000 0.750000
vt 0.625000 0.750000
vt 0.375000 0.800000
vt 0.425000 0.800000
vt 0.475000 0.800000
vt 0.525000 0.800000
vt 0.575000 0.800000
vt 0.625000 0.800000
vt 0.375000 0.850000
vt 0.425000 0.850000
vt 0.475000 0.850000
vt 0.525000 0.850000
vt 0.575000 0.850000
vt 0.625000 0.850000
vt 0.375000 0.900000
vt 0.425000 0.900000
vt 0.475000 0.900000
vt 0.525000 0.900000
vt 0.575000 0.900000
vt 0.625000 0.900000
vt 0.375000 0.950000
vt 0.425000 0.950000
vt 0.475000 0.950000
vt 0.525000 0.950000
vt 0.575000 0.950000
vt 0.625000 0.950000
vt 0.375000 1.000000
vt 0.425000 1.000000
vt 0.475000 1.000000
vt 0.525000 1.000000
vt 0.575000 1.000000
vt 0.625000 1.000000
vt 0.875000 0.000000
vt 0.825000 0.000000
vt 0.775000 0.000000
vt 0.725000 0.000000
vt 0.675000 0.000000
vt 0.875000 0.250000
vt 0.825000 0.250000
vt 0.775000 0.250000
vt 0.725000 0.250000
vt 0.675000 0.250000
vt 0.125000 0.000000
vt 0.175000 0.000000
vt 0.225000 0.000000
vt 0.275000 0.000000
vt 0.325000 0.000000
vt 0.125000 0.250000
vt 0.175000 0.250000
vt 0.225000 0.250000
vt 0.275000 0.250000
vt 0.325000 0.250000
vt 0.425000 0.300000
vt 0.475000 0.300000
vt 0.425000 0.350000
vt 0.525000 0.300000
vt 0.575000 0.300000
vt 0.575000 0.350000
vt 0.425000 0.400000
vt 0.575000 0.400000
vt 0.475000 0.450000
vt 0.425000 0.450000
vt 0.525000 0.450000
vt 0.575000 0.450000
vt 0.425000 0.300000
vt 0.475000 0.300000
vt 0.425000 0.350000
vt 0.525000 0.300000
vt 0.575000 0.300000
vt 0.575000 0.350000
vt 0.425000 0.400000
vt 0.575000 0.400000
vt 0.475000 0.450000
vt 0.425000 0.450000
vt 0.525000 0.450000
vt 0.575000 0.450000
vn 0.000000 0.000000 1.000000
vn 0.000000 0.000000 1.000000
vn 0.000000 0.000000 1.000000
vn 0.000000 0.000000 1.000000
vn 0.000000 0.000000 1.000000
vn 0.000000 0.000000 1.000000
vn 0.000000 0.000000 1.000000
vn 0.000000 0.000000 1.000000
vn 0.000000 0.000000 1.000000
vn 0.000000 0.000000 1.000000
vn 0.000000 0.000000 1.000000
vn 0.000000 0.000000 1.000000
vn -0.000000 1.000000 0.000000
vn -0.000000 1.000000 0.000000
vn -0.000000 0.999987 0.005128
vn -0.000000 1.000000 0.000000
vn 0.000000 1.000000 0.000000
vn 0.000000 0.999607 0.028036
vn 0.000000 1.000000 0.000000
vn 0.000000 0.999607 0.028036
vn 0.000000 1.000000 0.000000
vn 0.000531 1.000000 0.000391
vn 0.000000 1.000000 0.000000
vn 0.000000 1.000000 0.000000
vn -0.000000 1.000000 0.000000
vn -0.000000 1.000000 0.000000
vn 0.000000 1.000000 0.000000
vn 0.000000 1.000000 -0.000000
vn 0.000000 1.000000 -0.000000
vn 0.000000 1.000000 -0.000000
vn 0.000000 1.000000 -0.000000
vn 0.000000 1.000000 -0.000000
vn 0.000000 1.000000 0.000000
vn 0.000000 1.000000 0.000000
vn 0.000000 1.000000 0.000000
vn 0.005471 0.999985 0.000000
vn -0.000000 1.000000 0.000000
vn -0.000000 1.000000 0.000000
vn 0.000000 1.000000 -0.000000
vn 0.000000 1.000000 -0.000000
vn 0.000000 1.000000 -0.000000
vn 0.000000 1.000000 0.000000
vn 0.000000 1.000000 0.000000
vn 0.005471 0.999985 0.000000
vn -0.000000 0.999987 -0.005128
vn -0.000000 1.000000 0.000000
vn 0.000000 1.000000 -0.000000
vn 0.000000 1.000000 -0.000000
vn 0.000000 1.000000 -0.000000
vn 0.000000 1.000000 0.000000
vn 0.000000 1.000000 0.000000
vn 0.000531 1.000000 -0.000391
vn -0.000000 1.000000 0.000000
vn -0.000000 1.000000 0.000000
vn 0.000000 0.999607 -0.028036
vn 0.000000 1.000000 0.000000
vn 0.000000 0.999607 -0.028036
vn 0.000000 1.000000 0.000000
vn 0.000000 1.000000 0.000000
vn 0.000000 1.000000 0.000000
vn 0.000000 0.000000 -1.000000
vn 0.000000 0.000000 -1.000000
vn 0.000000 0.000000 -1.000000
vn 0.000000 0.000000 -1.000000
vn 0.000000 0.000000 -1.000000
vn 0.000000 0.000000 -1.000000
vn 0.000000 0.000000 -1.000000
vn 0.000000 0.000000 -1.000000
vn 0.000000 0.000000 -1.000000
vn 0.000000 0.000000 -1.000000
vn 0.000000 0.000000 -1.000000
vn 0.000000 0.000000 -1.000000
vn 0.000000 -1.000000 0.000000
vn 0.000000 -1.000000 0.000000
vn 0.000000 -1.000000 0.000000
vn 0.000000 -1.000000 0.000000
vn 0.000000 -1.000000 0.000000
vn 0.000000 -1.000000 0.000000
vn 0.000000 -1.000000 0.000000
vn 0.000000 -1.000000 0.000000
vn -0.000000 -1.000000 0.000000
vn -0.000000 -1.000000 0.000000
vn -0.000000 -1.000000 0.000000
vn -0.000000 -1.000000 0.000000
vn 0.000000 -1.000000 0.000000
vn 0.000000 -1.000000 0.000000
vn 0.000000 -1.000000 0.000000
vn 0.000000 -1.000000 0.000000
vn -0.000000 -1.000000 0.000000
vn -0.000000 -1.000000 0.000000
vn 0.000000 -1.000000 0.000000
vn 0.000000 -1.000000 0.000000
vn 0.000000 -1.000000 0.000000
vn 0.000000 -1.000000 0.000000
vn -0.000000 -1.000000 0.000000
vn -0.000000 -1.000000 0.000000
vn 0.000000 -1.000000 0.000000
vn 0.000000 -1.000000 0.000000
vn 0.000000 -1.000000 0.000000
vn 0.000000 -1.000000 0.000000
vn -0.000000 -1.000000 0.000000
vn -0.000000 -1.000000 0.000000
vn 0.000000 -1.000000 0.000000
vn 0.000000 -1.000000 0.000000
vn 0.000000 -1.000000 0.000000
vn 0.000000 -1.000000 0.000000
vn -0.000000 -1.000000 0.000000
vn -0.000000 -1.000000 0.000000
vn 1.000000 0.000001 0.000000
vn 1.000000 0.000001 0.000000
vn 1.000000 0.000001 0.000000
vn 1.000000 0.000001 0.000000
vn 1.000000 0.000001 0.000000
vn 1.000000 0.000001 0.000000
vn 1.000000 0.000001 0.000000
vn 1.000000 0.000001 0.000000
vn 1.000000 0.000000 0.000000
vn 1.000000 0.000000 0.000000
vn 1.000000 0.000000 0.000000
vn 1.000000 0.000000 0.000000
vn -1.000000 0.000000 0.000000
vn -1.000000 -0.000000 0.000000
vn -1.000000 -0.000000 0.000000
vn -1.000000 0.000000 0.000000
vn -1.000000 -0.000001 0.000000
vn -1.000000 -0.000001 0.000000
vn -1.000000 -0.000001 0.000000
vn -1.000000 -0.000001 0.000000
vn -1.000000 -0.000001 0.000000
vn -1.000000 -0.000001 0.000000
vn -1.000000 -0.000001 0.000000
vn -1.000000 -0.000001 0.000000
vn 0.000000 0.996795 0.079999
vn 0.000000 0.996795 0.079999
vn -0.905817 -0.423670 0.000000
vn -0.905817 -0.423670 0.000000
vn -0.905817 -0.423670 0.000000
vn -0.905817 -0.423669 0.000000
vn 0.000000 0.996795 0.079999
vn 0.188356 0.981861 0.021699
vn 0.255921 0.966698 0.000000
vn -0.905816 -0.423671 0.000000
vn -0.905817 -0.423669 0.000000
vn 0.255921 0.966698 0.000000
vn 0.000000 0.996795 -0.079999
vn 0.000000 0.996795 -0.079999
vn -0.905816 -0.423671 0.000000
vn -0.905816 -0.423671 0.000000
vn 0.000000 0.996795 -0.079999
vn 0.188356 0.981861 -0.021699
vn -0.588920 -0.806052 0.058770
vn -0.030988 -0.997912 0.056665
vn 0.000344 -0.998755 0.049888
vn -0.098623 -0.992733 0.068953
vn -0.996865 0.079118 -0.000000
vn -0.996865 0.079118 -0.000000
vn 0.016351 -0.998708 0.048116
vn 0.014682 -0.998700 0.048816
vn 0.117298 -0.993027 0.011811
vn 0.063140 -0.997497 0.031841
vn 0.148997 -0.988838 0.000000
vn 0.148997 -0.988838 0.000000
vn -0.996865 0.079121 -0.000000
vn -0.996865 0.079121 -0.000000
vn 0.148997 -0.988838 0.000000
vn 0.148997 -0.988838 0.000000
vn -0.030988 -0.997912 -0.056665
vn -0.588921 -0.806051 -0.058770
vn -0.098623 -0.992733 -0.068953
vn 0.000344 -0.998755 -0.049888
vn 0.016351 -0.998708 -0.048116
vn 0.014682 -0.998700 -0.048816
vn 0.117298 -0.993027 -0.011811
vn 0.063140 -0.997497 -0.031841
s 1
g pCube1
usemtl initialShadingGroup
f 1/1/1 2/2/2 8/8/3 7/7/4
f 2/2/2 3/3/5 9/9/6 8/8/3
f 3/3/5 4/4/7 10/10/8 9/9/6
f 4/4/7 5/5/9 11/11/10 10/10/8
f 5/5/9 6/6/11 12/12/12 11/11/10
s 2
f 7/7/13 8/8/14 14/14/15 13/13/16
f 8/8/14 9/9/17 15/15/18 14/14/15
f 9/9/17 10/10/19 16/16/20 15/15/18
f 10/10/19 11/11/21 17/17/22 16/16/20
f 11/11/21 12/12/23 18/18/24 17/17/22
f 13/13/16 14/14/15 20/20/25 19/19/26
s 3
f 81/111/27 82/112/28 83/21/29 84/113/30
f 82/112/28 85/114/31 86/22/32 83/21/29
f 85/114/31 87/115/33 88/116/34 86/22/32
s 2
f 17/17/22 18/18/24 22/24/35 21/23/36
f 19/19/26 20/20/25 24/26/37 23/25/38
s 3
f 84/113/30 83/21/29 89/27/39 90/117/40
f 83/21/29 86/22/32 91/28/41 89/27/39
f 86/22/32 88/116/34 92/118/42 91/28/41
s 2
f 21/23/36 22/24/35 26/30/43 25/29/44
f 23/25/38 24/26/37 28/32/45 27/31/46
s 3
f 90/117/40 89/27/39 93/119/47 94/120/48
f 89/27/39 91/28/41 95/121/49 93/119/47
f 91/28/41 92/118/42 96/122/50 95/121/49
s 2
f 25/29/44 26/30/43 32/36/51 31/35/52
f 27/31/46 28/32/45 34/38/53 33/37/54
f 28/32/45 29/33/55 35/39/56 34/38/53
f 29/33/55 30/34/57 36/40/58 35/39/56
f 30/34/57 31/35/52 37/41/59 36/40/58
f 31/35/52 32/36/51 38/42/60 37/41/59
s 4
f 33/37/61 34/38/62 40/44/63 39/43/64
f 34/38/62 35/39/65 41/45/66 40/44/63
f 35/39/65 36/40/67 42/46/68 41/45/66
f 36/40/67 37/41/69 43/47/70 42/46/68
f 37/41/69 38/42/71 44/48/72 43/47/70
s 5
f 39/43/73 40/44/74 46/50/75 45/49/76
f 40/44/74 41/45/77 47/51/78 46/50/75
f 41/45/77 42/46/79 48/52/80 47/51/78
f 42/46/79 43/47/81 49/53/82 48/52/80
f 43/47/81 44/48/83 50/54/84 49/53/82
f 45/49/76 46/50/75 52/56/85 51/55/86
f 46/50/75 47/51/78 53/57/87 52/56/85
f 47/51/78 48/52/80 54/58/88 53/57/87
f 48/52/80 49/53/82 55/59/89 54/58/88
f 49/53/82 50/54/84 56/60/90 55/59/89
f 51/55/86 52/56/85 58/62/91 57/61/92
f 52/56/85 53/57/87 59/63/93 58/62/91
f 53/57/87 54/58/88 60/64/94 59/63/93
f 54/58/88 55/59/89 61/65/95 60/64/94
f 55/59/89 56/60/90 62/66/96 61/65/95
f 57/61/92 58/62/91 64/68/97 63/67/98
f 58/62/91 59/63/93 65/69/99 64/68/97
f 59/63/93 60/64/94 66/70/100 65/69/99
f 60/64/94 61/65/95 67/71/101 66/70/100
f 61/65/95 62/66/96 68/72/102 67/71/101
f 63/67/98 64/68/97 2/74/103 1/73/104
f 64/68/97 65/69/99 3/75/105 2/74/103
f 65/69/99 66/70/100 4/76/106 3/75/105
f 66/70/100 67/71/101 5/77/107 4/76/106
f 67/71/101 68/72/102 6/78/108 5/77/107
s 6
f 50/80/109 44/79/110 38/84/111 32/85/112
f 56/81/113 50/80/109 32/85/112 26/86/114
f 62/82/115 56/81/113 26/86/114 22/87/116
f 68/83/117 62/82/115 22/87/116 18/88/118
f 6/6/119 68/83/117 18/88/118 12/12/120
s 7
f 39/89/121 45/90/122 27/95/123 33/94/124
f 45/90/122 51/91/125 23/96/126 27/95/123
f 51/91/125 57/92/127 19/97/128 23/96/126
f 57/92/127 63/93/129 13/98/130 19/97/128
f 63/93/129 1/1/131 7/7/132 13/98/130
s 2
f 14/14/15 15/15/18 70/100/133 69/99/134
s 8
f 20/20/135 14/14/136 69/99/137 71/101/138
s 2
f 15/15/18 16/16/20 72/102/139 70/100/133
f 16/16/20 17/17/22 73/103/140 72/102/139
f 17/17/22 21/23/36 74/104/141 73/103/140
s 8
f 24/26/142 20/20/135 71/101/138 75/105/143
s 2
f 21/23/36 25/29/44 76/106/144 74/104/141
f 29/33/55 28/32/45 78/108/145 77/107/146
s 8
f 28/32/147 24/26/142 75/105/143 78/108/148
s 2
f 30/34/57 29/33/55 77/107/146 79/109/149
f 25/29/44 31/35/52 80/110/150 76/106/144
f 31/35/52 30/34/57 79/109/149 80/110/150
s 9
f 69/99/151 70/100/152 82/112/153 81/111/154
f 71/101/155 69/99/151 81/111/154 84/113/156
f 70/100/152 72/102/157 85/114/158 82/112/153
f 72/102/157 73/103/159 87/115/160 85/114/158
f 73/103/159 74/104/161 88/116/162 87/115/160
f 75/105/163 71/101/155 84/113/156 90/117/164
f 74/104/161 76/106/165 92/118/166 88/116/162
f 77/107/167 78/108/168 94/120/169 93/119/170
f 78/108/168 75/105/163 90/117/164 94/120/169
f 79/109/171 77/107/167 93/119/170 95/121/172
f 76/106/165 80/110/173 96/122/174 92/118/166
f 80/110/173 79/109/171 95/121/172 96/122/174
