# This file uses centimeters as units for non-parametric coordinates.

mtllib TestTube.mtl
g default
v 0.345744 -0.115436 -0.560284
v -0.325588 -0.115436 -0.560284
v -0.661254 -0.115436 0.021107
v -0.325589 -0.115436 0.602498
v 0.345744 -0.115436 0.602498
v 0.681410 -0.115436 0.021107
v 0.429749 0.244059 -0.705785
v -0.409593 0.244059 -0.705785
v -0.829265 0.244059 0.021107
v -0.409594 0.244059 0.747999
v 0.429749 0.244059 0.747999
v 0.849420 0.244059 0.021107
v 0.535086 0.244059 -0.888233
v -0.514930 0.244059 -0.888233
v -1.039938 0.244059 0.021107
v -0.514930 0.244059 0.930447
v 0.535085 0.244059 0.930447
v 1.060093 0.244059 0.021107
v 0.587754 0.061612 -0.979456
v -0.567598 0.061612 -0.979457
v -1.145274 0.061612 0.021107
v -0.567598 0.061612 1.021671
v 0.587753 0.061612 1.021671
v 1.165429 0.061612 0.021107
v 0.535086 -0.120836 -0.888233
v -0.514930 -0.120836 -0.888233
v -1.039937 -0.120836 0.021107
v -0.514930 -0.120836 0.930447
v 0.535085 -0.120836 0.930447
v 1.060093 -0.120836 0.021107
v 0.429872 -0.118136 -0.705998
v -0.409716 -0.118136 -0.705998
v -0.829511 -0.118136 0.021107
v -0.409717 -0.118136 0.748212
v 0.429872 -0.118136 0.748212
v 0.849667 -0.118136 0.021107
v 0.303618 -2.328701 -0.487320
v -0.283463 -2.328701 -0.487320
v -0.577003 -2.328701 0.021107
v -0.283463 -2.328701 0.529534
v 0.303618 -2.328701 0.529534
v 0.597159 -2.328701 0.021107
v 0.391954 -2.328701 -0.640322
v -0.371798 -2.328701 -0.640322
v -0.753674 -2.328701 0.021107
v -0.371798 -2.328701 0.682536
v 0.391954 -2.328701 0.682536
v 0.773830 -2.328701 0.021107
v 0.429995 -4.695626 -0.706211
v -0.409839 -4.695626 -0.706211
v -0.829757 -4.695626 0.021107
v -0.409840 -4.695626 0.748425
v 0.429995 -4.695626 0.748425
v 0.849913 -4.695626 0.021107
v 0.345744 -4.695626 -0.560284
v -0.325588 -4.695626 -0.560284
v -0.661254 -4.695626 0.021107
v -0.325589 -4.695626 0.602498
v 0.345744 -4.695626 0.602498
v 0.681410 -4.695626 0.021107
v 0.281205 -5.034985 -0.448499
v -0.261049 -5.034985 -0.448499
v 0.226807 -5.034985 -0.354278
v -0.206651 -5.034985 -0.354278
v -0.532176 -5.034985 0.021107
v -0.423380 -5.034985 0.021107
v -0.261050 -5.034985 0.490713
v -0.206651 -5.034985 0.396492
v 0.281205 -5.034985 0.490713
v 0.226806 -5.034985 0.396492
v 0.552332 -5.034985 0.021107
v 0.443535 -5.034985 0.021107
v 0.110103 -5.132053 -0.152142
v -0.089947 -5.132053 -0.152142
v 0.090034 -5.125239 -0.117381
v -0.069879 -5.125239 -0.117381
v -0.189973 -5.132053 0.021107
v -0.149835 -5.125239 0.021107
v -0.089948 -5.132053 0.194356
v -0.069879 -5.125239 0.159596
v 0.110103 -5.132053 0.194356
v 0.090034 -5.125239 0.159596
v 0.210128 -5.132053 0.021107
v 0.169991 -5.125239 0.021107
v 0.669134 0.131488 0.021107
v 0.339606 0.131488 -0.549653
v -0.319450 0.131488 -0.549653
v -0.648979 0.131488 0.021107
v -0.319451 0.131488 0.591867
v 0.339606 0.131488 0.591867
vt 0.000000 1.000000
vt 0.166667 1.000000
vt 0.333333 1.000000
vt 0.500000 1.000000
vt 0.666667 1.000000
vt 0.833333 1.000000
vt 1.000000 1.000000
vt 0.000000 0.833333
vt 0.166667 0.833333
vt 0.333333 0.833333
vt 0.500000 0.833333
vt 0.666667 0.833333
vt 0.833333 0.833333
vt 1.000000 0.833333
vt 0.000000 0.666667
vt 0.166667 0.666667
vt 0.333333 0.666667
vt 0.500000 0.666667
vt 0.666667 0.666667
vt 0.833333 0.666667
vt 1.000000 0.666667
vt 0.000000 0.500000
vt 0.166667 0.500000
vt 0.333333 0.500000
vt 0.500000 0.500000
vt 0.666667 0.500000
vt 0.833333 0.500000
vt 1.000000 0.500000
vt 0.000000 0.333333
vt 0.166667 0.333333
vt 0.333333 0.333333
vt 0.500000 0.333333
vt 0.666667 0.333333
vt 0.833333 0.333333
vt 1.000000 0.333333
vt 0.000000 0.166667
vt 0.166667 0.166667
vt 0.333333 0.166667
vt 0.500000 0.166667
vt 0.666667 0.166667
vt 0.833333 0.166667
vt 1.000000 0.166667
vt 0.166667 1.000000
vt 0.000000 1.000000
vt 0.000000 0.833333
vt 0.166667 0.833333
vt 0.333333 1.000000
vt 0.333333 0.833333
vt 0.500000 1.000000
vt 0.500000 0.833333
vt 0.666667 1.000000
vt 0.666667 0.833333
vt 0.833333 1.000000
vt 0.833333 0.833333
vt 1.000000 1.000000
vt 1.000000 0.833333
vt 0.166667 0.666667
vt 0.000000 0.666667
vt 0.000000 0.500000
vt 0.166667 0.500000
vt 0.333333 0.666667
vt 0.333333 0.500000
vt 0.500000 0.666667
vt 0.500000 0.500000
vt 0.666667 0.666667
vt 0.666667 0.500000
vt 0.833333 0.666667
vt 0.833333 0.500000
vt 1.000000 0.666667
vt 1.000000 0.500000
vt 0.000000 0.333333
vt 0.166667 0.333333
vt 0.333333 0.333333
vt 0.500000 0.333333
vt 0.666667 0.333333
vt 0.833333 0.333333
vt 1.000000 0.333333
vt 0.166667 0.166667
vt 0.000000 0.166667
vt 0.000000 -0.000000
vt 0.166667 -0.000000
vt 0.333333 0.166667
vt 0.333333 -0.000000
vt 0.500000 0.166667
vt 0.500000 -0.000000
vt 0.666667 0.166667
vt 0.666667 -0.000000
vt 0.833333 0.166667
vt 0.833333 -0.000000
vt 1.000000 0.166667
vt 1.000000 -0.000000
vt 0.000000 0.333333
vt 0.166667 0.333333
vt 0.166667 0.166667
vt 0.000000 0.166667
vt 0.333333 0.333333
vt 0.333333 0.166667
vt 0.500000 0.333333
vt 0.500000 0.166667
vt 0.666667 0.333333
vt 0.666667 0.166667
vt 0.833333 0.333333
vt 0.833333 0.166667
vt 1.000000 0.333333
vt 1.000000 0.166667
vt 0.500000 0.333333
vt 0.166667 0.333333
vt 0.166667 0.166667
vt 0.500000 0.166667
vt 0.333333 0.333333
vt 0.333333 0.166667
vt 0.500000 0.333333
vt 0.500000 0.166667
vt 0.666667 0.333333
vt 0.666667 0.166667
vt 0.833333 0.333333
vt 0.833333 0.166667
vt 0.833333 0.920997
vt 0.000000 0.920997
vt 1.000000 0.920997
vt 0.166667 0.920997
vt 0.333333 0.920997
vt 0.500000 0.920997
vt 0.666667 0.920997
vn -0.000000 -0.043014 0.999075
vn -0.000000 -0.043014 0.999075
vn -0.000000 0.460234 0.887798
vn -0.000000 0.460234 0.887798
vn 0.865224 -0.043014 0.499537
vn 0.865224 -0.043014 0.499537
vn 0.768855 0.460234 0.443899
vn 0.768855 0.460234 0.443899
vn 0.865224 -0.043013 -0.499537
vn 0.865224 -0.043013 -0.499537
vn 0.768855 0.460235 -0.443898
vn 0.768855 0.460235 -0.443898
vn 0.000000 -0.043013 -0.999075
vn 0.000000 -0.043013 -0.999075
vn 0.000000 0.460235 -0.887797
vn 0.000000 0.460235 -0.887797
vn -0.865224 -0.043014 -0.499537
vn -0.865224 -0.043014 -0.499537
vn -0.768855 0.460234 -0.443899
vn -0.768855 0.460234 -0.443899
vn -0.865224 -0.043014 0.499537
vn -0.865224 -0.043014 0.499537
vn -0.768856 0.460234 0.443899
vn -0.768856 0.460234 0.443899
vn 0.000000 1.000000 -0.000000
vn 0.000000 1.000000 -0.000000
vn 0.000000 1.000000 -0.000000
vn 0.000000 1.000000 -0.000000
vn 0.000000 1.000000 -0.000000
vn 0.000000 1.000000 -0.000000
vn 0.000000 1.000000 -0.000000
vn 0.000000 1.000000 -0.000000
vn 0.000000 1.000000 0.000000
vn 0.000000 1.000000 0.000000
vn 0.000000 1.000000 0.000000
vn 0.000000 1.000000 0.000000
vn 0.000000 1.000000 -0.000000
vn 0.000000 1.000000 -0.000000
vn 0.000000 1.000000 -0.000000
vn 0.000000 1.000000 -0.000000
vn 0.000000 1.000000 0.000000
vn 0.000000 1.000000 0.000000
vn 0.000000 1.000000 0.000000
vn 0.000000 1.000000 0.000000
vn 0.000000 1.000000 -0.000000
vn 0.000000 1.000000 -0.000000
vn 0.000000 1.000000 -0.000000
vn 0.000000 1.000000 -0.000000
vn 0.000000 0.447213 -0.894427
vn 0.000000 0.447213 -0.894427
vn 0.000000 0.447213 -0.894427
vn 0.000000 0.447213 -0.894427
vn -0.774597 0.447213 -0.447214
vn -0.774597 0.447213 -0.447214
vn -0.774597 0.447213 -0.447214
vn -0.774597 0.447213 -0.447214
vn -0.774597 0.447213 0.447214
vn -0.774597 0.447213 0.447214
vn -0.774597 0.447213 0.447214
vn -0.774597 0.447213 0.447214
vn -0.000000 0.447214 0.894427
vn -0.000000 0.447214 0.894427
vn -0.000000 0.447214 0.894427
vn -0.000000 0.447214 0.894427
vn 0.774597 0.447213 0.447214
vn 0.774597 0.447213 0.447214
vn 0.774597 0.447213 0.447214
vn 0.774597 0.447213 0.447214
vn 0.774597 0.447213 -0.447214
vn 0.774597 0.447213 -0.447214
vn 0.774597 0.447213 -0.447214
vn 0.774597 0.447213 -0.447214
vn 0.000000 -0.447214 -0.894427
vn 0.000000 -0.447213 -0.894427
vn 0.000000 -0.447214 -0.894427
vn 0.000000 -0.447214 -0.894427
vn -0.774597 -0.447214 -0.447214
vn -0.774597 -0.447214 -0.447214
vn -0.774597 -0.447214 -0.447214
vn -0.774597 -0.447214 -0.447214
vn -0.774597 -0.447214 0.447213
vn -0.774597 -0.447214 0.447213
vn -0.774597 -0.447214 0.447213
vn -0.774597 -0.447214 0.447213
vn -0.000000 -0.447214 0.894427
vn -0.000000 -0.447214 0.894427
vn -0.000000 -0.447214 0.894427
vn -0.000000 -0.447214 0.894427
vn 0.774597 -0.447214 0.447214
vn 0.774597 -0.447214 0.447214
vn 0.774597 -0.447214 0.447214
vn 0.774597 -0.447214 0.447214
vn 0.774597 -0.447214 -0.447214
vn 0.774597 -0.447214 -0.447213
vn 0.774597 -0.447214 -0.447213
vn 0.774597 -0.447214 -0.447213
vn -0.000000 -0.999890 0.014814
vn -0.000000 -0.999890 0.014814
vn -0.000000 -0.999890 0.014814
vn -0.000000 -0.999890 0.014814
vn 0.012829 -0.999890 0.007407
vn 0.012829 -0.999890 0.007407
vn 0.012829 -0.999890 0.007407
vn 0.012829 -0.999890 0.007407
vn 0.012829 -0.999890 -0.007407
vn 0.012829 -0.999890 -0.007407
vn 0.012829 -0.999890 -0.007407
vn 0.012829 -0.999890 -0.007407
vn 0.000000 -0.999890 -0.014814
vn 0.000000 -0.999890 -0.014814
vn 0.000000 -0.999890 -0.014814
vn 0.000000 -0.999890 -0.014814
vn -0.012829 -0.999890 -0.007407
vn -0.012829 -0.999890 -0.007407
vn -0.012829 -0.999890 -0.007407
vn -0.012829 -0.999890 -0.007407
vn -0.012829 -0.999890 0.007407
vn -0.012829 -0.999890 0.007407
vn -0.012829 -0.999890 0.007407
vn -0.012829 -0.999890 0.007407
vn -0.000000 0.032949 0.999457
vn -0.000000 0.032949 0.999457
vn -0.000000 0.032949 0.999457
vn -0.000000 0.032949 0.999457
vn 0.865555 0.032949 0.499728
vn 0.865555 0.032949 0.499728
vn 0.865555 0.032949 0.499728
vn 0.865555 0.032949 0.499728
vn 0.865555 0.032949 -0.499728
vn 0.865555 0.032949 -0.499728
vn 0.865555 0.032949 -0.499728
vn 0.865555 0.032949 -0.499728
vn 0.000000 0.032949 -0.999457
vn 0.000000 0.032949 -0.999457
vn 0.000000 0.032949 -0.999457
vn 0.000000 0.032949 -0.999457
vn -0.865555 0.032949 -0.499729
vn -0.865555 0.032949 -0.499729
vn -0.865555 0.032949 -0.499729
vn -0.865555 0.032949 -0.499729
vn -0.865555 0.032949 0.499728
vn -0.865555 0.032949 0.499728
vn -0.865555 0.032949 0.499728
vn -0.865555 0.032949 0.499728
vn 0.000000 -0.029697 -0.999559
vn 0.000000 -0.029697 -0.999559
vn 0.000000 -0.029697 -0.999559
vn 0.000000 -0.029697 -0.999559
vn -0.865644 -0.029697 -0.499779
vn -0.865644 -0.029697 -0.499779
vn -0.865644 -0.029697 -0.499779
vn -0.865644 -0.029697 -0.499779
vn -0.865644 -0.029697 0.499779
vn -0.865644 -0.029697 0.499779
vn -0.865644 -0.029697 0.499779
vn -0.865644 -0.029697 0.499779
vn 0.000000 -0.029697 0.999559
vn 0.000000 -0.029697 0.999559
vn 0.000000 -0.029697 0.999559
vn 0.000000 -0.029697 0.999559
vn 0.865643 -0.029697 0.499780
vn 0.865643 -0.029697 0.499780
vn 0.865643 -0.029697 0.499780
vn 0.865643 -0.029697 0.499780
vn 0.865644 -0.029697 -0.499779
vn 0.865644 -0.029697 -0.499779
vn 0.865644 -0.029697 -0.499779
vn 0.865644 -0.029697 -0.499779
vn 0.000000 0.027827 -0.999613
vn 0.000000 0.027827 -0.999613
vn 0.000000 -0.042485 -0.999097
vn 0.000000 -0.042485 -0.999097
vn -0.865690 0.027827 -0.499806
vn -0.865690 0.027827 -0.499806
vn -0.865244 -0.042485 -0.499548
vn -0.865244 -0.042485 -0.499548
vn -0.865690 0.027827 0.499806
vn -0.865690 0.027827 0.499806
vn -0.865244 -0.042485 0.499548
vn -0.865244 -0.042485 0.499548
vn -0.000000 0.027827 0.999613
vn -0.000000 0.027827 0.999613
vn -0.000000 -0.042485 0.999097
vn -0.000000 -0.042485 0.999097
vn 0.865690 0.027827 0.499807
vn 0.865690 0.027827 0.499807
vn 0.865243 -0.042485 0.499549
vn 0.865243 -0.042485 0.499549
vn 0.865690 0.027827 -0.499806
vn 0.865690 0.027827 -0.499806
vn 0.865244 -0.042485 -0.499548
vn 0.865244 -0.042485 -0.499548
vn -0.000000 0.029105 0.999576
vn -0.000000 0.029105 0.999576
vn -0.000000 -0.030812 0.999525
vn -0.000000 -0.030812 0.999525
vn 0.865659 0.029105 0.499788
vn 0.865659 0.029105 0.499788
vn 0.865614 -0.030812 0.499762
vn 0.865614 -0.030812 0.499763
vn 0.865659 0.029105 -0.499788
vn 0.865659 0.029105 -0.499788
vn 0.865614 -0.030812 -0.499762
vn 0.865614 -0.030812 -0.499762
vn 0.000000 0.029105 -0.999576
vn 0.000000 0.029105 -0.999576
vn 0.000000 -0.030812 -0.999525
vn 0.000000 -0.030812 -0.999525
vn -0.865658 0.029105 -0.499788
vn -0.865658 0.029105 -0.499788
vn -0.865614 -0.030812 -0.499763
vn -0.865614 -0.030812 -0.499763
vn -0.865659 0.029105 0.499788
vn -0.865659 0.029105 0.499788
vn -0.865614 -0.030812 0.499762
vn -0.865614 -0.030812 0.499762
vn 0.000000 -0.604785 -0.796389
vn 0.000000 -0.604785 -0.796389
vn -0.000000 0.518917 0.854824
vn -0.000000 0.518917 0.854824
vn -0.689693 -0.604785 -0.398194
vn -0.689693 -0.604785 -0.398194
vn 0.740300 0.518917 0.427412
vn 0.740300 0.518917 0.427412
vn -0.689693 -0.604785 0.398194
vn -0.689693 -0.604785 0.398194
vn 0.740300 0.518917 -0.427412
vn 0.740300 0.518917 -0.427412
vn -0.000000 -0.604785 0.796389
vn -0.000000 -0.604785 0.796389
vn 0.000000 0.518916 -0.854825
vn 0.000000 0.518916 -0.854825
vn 0.689692 -0.604786 0.398195
vn 0.689692 -0.604785 0.398195
vn -0.740300 0.518917 -0.427413
vn -0.740300 0.518917 -0.427413
vn 0.689693 -0.604785 -0.398194
vn 0.689693 -0.604786 -0.398194
vn -0.740300 0.518917 0.427412
vn -0.740300 0.518917 0.427412
vn 0.000000 -0.950323 -0.311266
vn 0.000000 -0.950323 -0.311266
vn 0.000000 -0.950323 -0.311266
vn 0.000000 -0.950323 -0.311266
vn -0.000000 0.934477 0.356023
vn -0.000000 0.934477 0.356023
vn -0.000000 0.934477 0.356023
vn -0.000000 0.934477 0.356023
vn -0.269565 -0.950322 -0.155635
vn -0.269565 -0.950322 -0.155635
vn -0.187420 -0.976301 -0.108208
vn -0.221369 -0.966779 -0.127808
vn 0.308326 0.934476 0.178014
vn 0.308326 0.934476 0.178014
vn 0.254421 0.955873 0.146891
vn 0.216001 0.968396 0.124709
vn -0.269565 -0.950323 0.155633
vn -0.269565 -0.950323 0.155633
vn -0.221369 -0.966779 0.127808
vn -0.187421 -0.976302 0.108208
vn 0.308326 0.934477 -0.178012
vn 0.308326 0.934477 -0.178012
vn 0.216001 0.968396 -0.124708
vn 0.254421 0.955873 -0.146890
vn 0.000000 -0.950322 0.311269
vn 0.000000 -0.950322 0.311269
vn 0.000000 -0.950322 0.311269
vn 0.000000 -0.950322 0.311269
vn 0.000000 0.934477 -0.356023
vn 0.000000 0.934477 -0.356023
vn 0.000000 0.934477 -0.356023
vn 0.000000 0.934477 -0.356023
vn 0.269565 -0.950323 0.155633
vn 0.269565 -0.950323 0.155633
vn 0.187420 -0.976302 0.108207
vn 0.221369 -0.966779 0.127807
vn -0.308326 0.934477 -0.178012
vn -0.308326 0.934477 -0.178012
vn -0.254421 0.955873 -0.146890
vn -0.216001 0.968396 -0.124708
vn 0.269565 -0.950323 -0.155633
vn 0.269565 -0.950323 -0.155633
vn 0.221369 -0.966779 -0.127807
vn 0.187420 -0.976302 -0.108207
vn -0.308326 0.934476 0.178014
vn -0.308326 0.934476 0.178014
vn -0.216001 0.968396 0.124709
vn -0.254421 0.955873 0.146891
vn -0.506487 0.811148 0.292420
vn -0.506487 0.811148 0.292420
vn -0.000000 0.811148 0.584841
vn -0.000000 0.811148 0.584841
vn 0.506487 0.811148 0.292420
vn 0.506487 0.811148 0.292420
vn 0.506487 0.811148 -0.292420
vn 0.506487 0.811148 -0.292420
vn 0.000000 0.811149 -0.584840
vn 0.000000 0.811149 -0.584840
vn -0.506487 0.811148 -0.292420
vn -0.506487 0.811148 -0.292420
s 1
g polySurface1
usemtl initialShadingGroup
f 2/2/1 1/1/2 86/119/3 87/121/4
s 2
f 3/3/5 2/2/6 87/121/7 88/122/8
s 3
f 4/4/9 3/3/10 88/122/11 89/123/12
s 4
f 5/5/13 4/4/14 89/123/15 90/124/16
s 5
f 6/6/17 5/5/18 90/124/19 85/118/20
s 6
f 1/7/21 6/6/22 85/118/23 86/120/24
s off
f 8/9/25 7/8/26 13/15/27 14/16/28
f 9/10/29 8/9/30 14/16/31 15/17/32
f 10/11/33 9/10/34 15/17/35 16/18/36
f 11/12/37 10/11/38 16/18/39 17/19/40
f 12/13/41 11/12/42 17/19/43 18/20/44
f 7/14/45 12/13/46 18/20/47 13/21/48
f 14/16/49 13/15/50 19/22/51 20/23/52
f 15/17/53 14/16/54 20/23/55 21/24/56
f 16/18/57 15/17/58 21/24/59 22/25/60
f 17/19/61 16/18/62 22/25/63 23/26/64
f 18/20/65 17/19/66 23/26/67 24/27/68
f 13/21/69 18/20/70 24/27/71 19/28/72
f 20/23/73 19/22/74 25/29/75 26/30/76
f 21/24/77 20/23/78 26/30/79 27/31/80
f 22/25/81 21/24/82 27/31/83 28/32/84
f 23/26/85 22/25/86 28/32/87 29/33/88
f 24/27/89 23/26/90 29/33/91 30/34/92
f 19/28/93 24/27/94 30/34/95 25/35/96
f 26/30/97 25/29/98 31/36/99 32/37/100
f 27/31/101 26/30/102 32/37/103 33/38/104
f 28/32/105 27/31/106 33/38/107 34/39/108
f 29/33/109 28/32/110 34/39/111 35/40/112
f 30/34/113 29/33/114 35/40/115 36/41/116
f 25/35/117 30/34/118 36/41/119 31/42/120
usemtl phong1SG
f 38/43/121 37/44/122 1/45/123 2/46/124
f 39/47/125 38/43/126 2/46/127 3/48/128
f 40/49/129 39/47/130 3/48/131 4/50/132
f 41/51/133 40/49/134 4/50/135 5/52/136
f 42/53/137 41/51/138 5/52/139 6/54/140
f 37/55/141 42/53/142 6/54/143 1/56/144
f 32/57/145 31/58/146 43/59/147 44/60/148
f 33/61/149 32/57/150 44/60/151 45/62/152
f 34/63/153 33/61/154 45/62/155 46/64/156
f 35/65/157 34/63/158 46/64/159 47/66/160
f 36/67/161 35/65/162 47/66/163 48/68/164
f 31/69/165 36/67/166 48/68/167 43/70/168
s 7
f 44/60/169 43/59/170 49/71/171 50/72/172
s 8
f 45/62/173 44/60/174 50/72/175 51/73/176
s 9
f 46/64/177 45/62/178 51/73/179 52/74/180
s 10
f 47/66/181 46/64/182 52/74/183 53/75/184
s 11
f 48/68/185 47/66/186 53/75/187 54/76/188
s 12
f 43/70/189 48/68/190 54/76/191 49/77/192
s 13
f 56/78/193 55/79/194 37/80/195 38/81/196
s 14
f 57/82/197 56/78/198 38/81/199 39/83/200
s 15
f 58/84/201 57/82/202 39/83/203 40/85/204
s 16
f 59/86/205 58/84/206 40/85/207 41/87/208
s 17
f 60/88/209 59/86/210 41/87/211 42/89/212
s 18
f 55/90/213 60/88/214 42/89/215 37/91/216
s 7
f 50/72/172 49/71/171 61/92/217 62/93/218
s 13
f 55/79/194 56/78/193 64/94/219 63/95/220
s 8
f 51/73/176 50/72/175 62/93/221 65/96/222
s 14
f 56/78/198 57/82/197 66/97/223 64/94/224
s 9
f 52/74/180 51/73/179 65/96/225 67/98/226
s 15
f 57/82/202 58/84/201 68/99/227 66/97/228
s 10
f 53/75/184 52/74/183 67/98/229 69/100/230
s 16
f 58/84/206 59/86/205 70/101/231 68/99/232
s 11
f 54/76/188 53/75/187 69/100/233 71/102/234
s 17
f 59/86/210 60/88/209 72/103/235 70/101/236
s 12
f 49/77/192 54/76/191 71/102/237 61/104/238
s 18
f 60/88/214 55/90/213 63/105/239 72/103/240
s off
f 62/93/241 61/92/242 73/106/243 74/107/244
f 63/95/245 64/94/246 76/108/247 75/109/248
s 19
f 65/96/249 62/93/250 74/107/251 77/110/252
s 20
f 64/94/253 66/97/254 78/111/255 76/108/256
s 21
f 67/98/257 65/96/258 77/110/259 79/112/260
s 22
f 66/97/261 68/99/262 80/113/263 78/111/264
s off
f 69/100/265 67/98/266 79/112/267 81/114/268
f 68/99/269 70/101/270 82/115/271 80/113/272
s 21
f 71/102/273 69/100/274 81/114/275 83/116/276
s 22
f 70/101/277 72/103/278 84/117/279 82/115/280
s 19
f 61/104/281 71/102/282 83/116/283 73/106/284
s 20
f 72/103/285 63/105/286 75/109/287 84/117/288
s 22
f 78/111/264 80/113/263 82/115/280 84/117/279
s 20
f 76/108/256 78/111/255 84/117/288 75/109/287
s 21
f 79/112/260 77/110/259 83/116/276 81/114/275
s 19
f 77/110/252 74/107/251 73/106/284 83/116/283
s 6
usemtl initialShadingGroup
f 86/120/24 85/118/23 12/13/289 7/14/290
s 1
f 87/121/4 86/119/3 7/8/291 8/9/292
s 2
f 88/122/8 87/121/7 8/9/293 9/10/294
s 3
f 89/123/12 88/122/11 9/10/295 10/11/296
s 4
f 90/124/16 89/123/15 10/11/297 11/12/298
s 5
f 85/118/20 90/124/19 11/12/299 12/13/300
