# This file uses centimeters as units for non-parametric coordinates.

mtllib Store_Counter_Selection_1.mtl
g default
v -183.090607 109.682358 303.749268
v -180.229980 109.682358 303.749268
v -183.090607 235.454224 303.749268
v -180.229980 235.454224 303.749268
v -183.090607 235.454224 -93.930649
v -180.229980 235.454224 -93.930649
v -183.090607 109.682358 -93.930649
v -180.229980 109.682358 -93.930649
vt 0.188059 0.000000
vt 0.357942 0.000000
vt 0.357942 0.250000
vt 0.188059 0.250000
vt 0.357942 0.500000
vt 0.188059 0.500000
vt 0.357942 0.750000
vt 0.188059 0.750000
vt 0.357942 1.000000
vt 0.188059 1.000000
vt 0.999104 0.000000
vt 0.999104 0.250000
vt 0.030744 0.000000
vt 0.030744 0.250000
vn 0.000000 0.000000 1.000000
vn 0.000000 0.000000 1.000000
vn 0.000000 0.000000 1.000000
vn 0.000000 0.000000 1.000000
vn 0.000000 1.000000 0.000000
vn 0.000000 1.000000 0.000000
vn 0.000000 1.000000 0.000000
vn 0.000000 1.000000 0.000000
vn 0.000000 0.000000 -1.000000
vn 0.000000 0.000000 -1.000000
vn 0.000000 0.000000 -1.000000
vn 0.000000 0.000000 -1.000000
vn 0.000000 -1.000000 0.000000
vn 0.000000 -1.000000 0.000000
vn 0.000000 -1.000000 0.000000
vn 0.000000 -1.000000 0.000000
vn 1.000000 0.000000 0.000000
vn 1.000000 0.000000 0.000000
vn 1.000000 0.000000 0.000000
vn 1.000000 0.000000 0.000000
vn -1.000000 0.000000 0.000000
vn -1.000000 0.000000 0.000000
vn -1.000000 0.000000 0.000000
vn -1.000000 0.000000 0.000000
s off
g BackBoard
usemtl lambert5SG
f 1/1/1 2/2/2 4/3/3 3/4/4
f 3/4/5 4/3/6 6/5/7 5/6/8
f 5/6/9 6/5/10 8/7/11 7/8/12
f 7/8/13 8/7/14 2/9/15 1/10/16
f 2/2/17 8/11/18 6/12/19 4/3/20
f 7/13/21 1/1/22 3/4/23 5/14/24
